<?xml version="1.0" encoding="UTF-8" standalone="no"?><svg xmlns="http://www.w3.org/2000/svg" xmlns:xlink="http://www.w3.org/1999/xlink" contentStyleType="text/css" height="478px" preserveAspectRatio="none" style="width:582px;height:478px;background:#FFFFFF;" version="1.1" viewBox="0 0 582 478" width="582px" zoomAndPan="magnify"><defs/><g><rect fill="none" height="26.2969" id="_title" style="stroke:none;stroke-width:1.0;" width="47" x="269" y="10"/><text fill="#000000" font-family="sans-serif" font-size="14" font-weight="bold" lengthAdjust="spacing" textLength="37" x="274" y="27.9951">Flow</text><rect fill="#FFFFFF" height="253.9297" style="stroke:#181818;stroke-width:1.0;" width="10" x="132" y="134.5938"/><rect fill="#FFFFFF" height="140.5313" style="stroke:#181818;stroke-width:1.0;" width="10" x="507" y="247.9922"/><rect fill="none" height="117.5313" style="stroke:#000000;stroke-width:1.5;" width="566" x="10" y="262.9922"/><line style="stroke:#181818;stroke-width:0.5;stroke-dasharray:5.0,5.0;" x1="38" x2="38" y1="118.5938" y2="397.5234"/><line style="stroke:#181818;stroke-width:0.5;stroke-dasharray:5.0,5.0;" x1="137" x2="137" y1="118.5938" y2="397.5234"/><line style="stroke:#181818;stroke-width:0.5;stroke-dasharray:5.0,5.0;" x1="512" x2="512" y1="118.5938" y2="397.5234"/><text fill="#000000" font-family="sans-serif" font-size="14" lengthAdjust="spacing" textLength="30" x="20" y="115.292">user</text><ellipse cx="38" cy="50.7969" fill="#E2E2F0" rx="8" ry="8" style="stroke:#181818;stroke-width:0.5;"/><path d="M38,58.7969 L38,85.7969 M25,66.7969 L51,66.7969 M38,85.7969 L25,100.7969 M38,85.7969 L51,100.7969 " fill="none" style="stroke:#181818;stroke-width:0.5;"/><text fill="#000000" font-family="sans-serif" font-size="14" lengthAdjust="spacing" textLength="30" x="20" y="409.5186">user</text><ellipse cx="38" cy="421.3203" fill="#E2E2F0" rx="8" ry="8" style="stroke:#181818;stroke-width:0.5;"/><path d="M38,429.3203 L38,456.3203 M25,437.3203 L51,437.3203 M38,456.3203 L25,471.3203 M38,456.3203 L51,471.3203 " fill="none" style="stroke:#181818;stroke-width:0.5;"/><rect fill="#E2E2F0" height="30.2969" rx="2.5" ry="2.5" style="stroke:#181818;stroke-width:0.5;" width="142" x="66" y="87.2969"/><text fill="#000000" font-family="sans-serif" font-size="14" lengthAdjust="spacing" textLength="128" x="73" y="107.292">plantuml-watcher</text><rect fill="#E2E2F0" height="30.2969" rx="2.5" ry="2.5" style="stroke:#181818;stroke-width:0.5;" width="142" x="66" y="396.5234"/><text fill="#000000" font-family="sans-serif" font-size="14" lengthAdjust="spacing" textLength="128" x="73" y="416.5186">plantuml-watcher</text><rect fill="#E2E2F0" height="30.2969" rx="2.5" ry="2.5" style="stroke:#181818;stroke-width:0.5;" width="108" x="458" y="87.2969"/><text fill="#000000" font-family="sans-serif" font-size="14" lengthAdjust="spacing" textLength="94" x="465" y="107.292">file to edited</text><rect fill="#E2E2F0" height="30.2969" rx="2.5" ry="2.5" style="stroke:#181818;stroke-width:0.5;" width="108" x="458" y="396.5234"/><text fill="#000000" font-family="sans-serif" font-size="14" lengthAdjust="spacing" textLength="94" x="465" y="416.5186">file to edited</text><rect fill="#FFFFFF" height="253.9297" style="stroke:#181818;stroke-width:1.0;" width="10" x="132" y="134.5938"/><rect fill="#FFFFFF" height="140.5313" style="stroke:#181818;stroke-width:1.0;" width="10" x="507" y="247.9922"/><polygon fill="#181818" points="120,130.5938,130,134.5938,120,138.5938,124,134.5938" style="stroke:#181818;stroke-width:1.0;"/><line style="stroke:#181818;stroke-width:1.0;" x1="38" x2="126" y1="134.5938" y2="134.5938"/><line style="stroke:#181818;stroke-width:1.0;" x1="142" x2="184" y1="163.7266" y2="163.7266"/><line style="stroke:#181818;stroke-width:1.0;" x1="184" x2="184" y1="163.7266" y2="176.7266"/><line style="stroke:#181818;stroke-width:1.0;" x1="143" x2="184" y1="176.7266" y2="176.7266"/><polygon fill="#181818" points="153,172.7266,143,176.7266,153,180.7266,149,176.7266" style="stroke:#181818;stroke-width:1.0;"/><text fill="#000000" font-family="sans-serif" font-size="13" lengthAdjust="spacing" textLength="104" x="149" y="158.6606">process existing</text><text fill="#000000" font-family="sans-serif" font-size="13" font-weight="bold" lengthAdjust="spacing" textLength="41" x="257" y="158.6606">.puml</text><text fill="#000000" font-family="sans-serif" font-size="13" lengthAdjust="spacing" textLength="198" x="302" y="158.6606">file before start the watch loop</text><line style="stroke:#181818;stroke-width:1.0;" x1="142" x2="184" y1="205.8594" y2="205.8594"/><line style="stroke:#181818;stroke-width:1.0;" x1="184" x2="184" y1="205.8594" y2="218.8594"/><line style="stroke:#181818;stroke-width:1.0;" x1="143" x2="184" y1="218.8594" y2="218.8594"/><polygon fill="#181818" points="153,214.8594,143,218.8594,153,222.8594,149,218.8594" style="stroke:#181818;stroke-width:1.0;"/><text fill="#000000" font-family="sans-serif" font-size="13" lengthAdjust="spacing" textLength="291" x="149" y="200.7935">search for all directory (include sub directory)</text><line style="stroke:#181818;stroke-width:1.0;" x1="505" x2="495" y1="247.9922" y2="243.9922"/><line style="stroke:#181818;stroke-width:1.0;" x1="142" x2="506" y1="247.9922" y2="247.9922"/><text fill="#000000" font-family="sans-serif" font-size="13" lengthAdjust="spacing" textLength="62" x="149" y="242.9263">watch file</text><path d="M10,262.9922 L88,262.9922 L88,270.125 L78,280.125 L10,280.125 L10,262.9922 " fill="#EEEEEE" style="stroke:#000000;stroke-width:1.5;"/><rect fill="none" height="117.5313" style="stroke:#000000;stroke-width:1.5;" width="566" x="10" y="262.9922"/><text fill="#000000" font-family="sans-serif" font-size="13" font-weight="bold" lengthAdjust="spacing" textLength="33" x="25" y="276.0591">loop</text><text fill="#000000" font-family="sans-serif" font-size="11" font-weight="bold" lengthAdjust="spacing" textLength="170" x="103" y="275.2026">["when the file is edited"]</text><polygon fill="#181818" points="495,297.2578,505,301.2578,495,305.2578,499,301.2578" style="stroke:#181818;stroke-width:1.0;"/><line style="stroke:#181818;stroke-width:1.0;" x1="38" x2="501" y1="301.2578" y2="301.2578"/><text fill="#000000" font-family="sans-serif" font-size="13" lengthAdjust="spacing" textLength="47" x="45" y="296.1919">edit file</text><line style="stroke:#181818;stroke-width:1.0;" x1="143" x2="153" y1="330.3906" y2="326.3906"/><line style="stroke:#181818;stroke-width:1.0;" x1="142" x2="506" y1="330.3906" y2="330.3906"/><text fill="#000000" font-family="sans-serif" font-size="13" lengthAdjust="spacing" textLength="76" x="159" y="325.3247">file updated</text><line style="stroke:#181818;stroke-width:1.0;" x1="142" x2="184" y1="359.5234" y2="359.5234"/><line style="stroke:#181818;stroke-width:1.0;" x1="184" x2="184" y1="359.5234" y2="372.5234"/><line style="stroke:#181818;stroke-width:1.0;" x1="143" x2="184" y1="372.5234" y2="372.5234"/><polygon fill="#181818" points="153,368.5234,143,372.5234,153,376.5234,149,372.5234" style="stroke:#181818;stroke-width:1.0;"/><text fill="#000000" font-family="sans-serif" font-size="13" lengthAdjust="spacing" textLength="324" x="149" y="354.4575">sync the new version of file and gen .svg and .png</text><!--MD5=[127a3289ebaa939ec22af1e3d1d7e8bf]
@startuml
title Flow

actor user
participant "plantuml-watcher" as watcher
participant "file to edited" as f

user -> watcher
activate watcher
watcher -> watcher: process existing **.puml** file before start the watch loop
watcher -> watcher: search for all directory (include sub directory)
watcher -\\ f: watch file
activate f

loop "when the file is edited"
    user -> f: edit file
    f -\\ watcher: file updated
    watcher -> watcher: sync the new version of file and gen .svg and .png
end
@enduml

PlantUML version 1.2022.10beta1(Unknown compile time)
(GPL source distribution)
Java Runtime: Java(TM) SE Runtime Environment
JVM: Java HotSpot(TM) 64-Bit Server VM
Default Encoding: UTF-8
Language: en
Country: US
--></g></svg>